<svg width="100%" min-height="0" viewBox="0 0 141 119" fill="none"
    xmlns="http://www.w3.org/2000/svg">
    <g id="sign">
        <g id="left-wing">
            <path id="Vector" d="M55.0894 40.8274C54.3594 40.6574 41.4394 18.0174 22.3594 21.1874C22.3594 21.1874 11.0694 23.3574 19.5894 32.3674C19.5894 32.3674 23.1194 36.5174 25.6894 37.5774C25.6894 37.5774 20.1194 37.7874 20.9394 43.9474C21.7594 50.1074 36.8294 50.9474 36.8294 50.9474H39.0194C39.0194 50.9474 32.9194 52.1673 33.0894 57.9473C33.2594 63.7273 42.3594 64.7373 50.3594 61.0673C50.3594 61.0673 57.2494 57.5074 57.9394 54.4874C58.6294 51.4674 55.0894 40.8274 55.0894 40.8274Z" fill="#CCDCF3"/>
        </g>
        <g id="right-wing">
            <path id="Vector_2" d="M115.909 14.1674C107.989 15.6374 100.039 34.9274 99.6794 49.1674L102.259 57.3574C102.259 57.3574 113.919 60.0174 123.449 47.7774C124.108 46.9425 124.498 45.9281 124.569 44.8674C124.719 42.5574 124.239 38.7774 119.509 38.4674C121.015 37.841 122.228 36.6676 122.903 35.1833C123.578 33.699 123.666 32.014 123.149 30.4674C121.419 24.6474 117.699 26.3374 117.699 26.3374C117.699 26.3374 122.899 20.1974 119.699 15.4274C119.336 14.9 118.826 14.4909 118.232 14.2509C117.638 14.0109 116.987 13.9506 116.359 14.0774L115.909 14.1674Z" fill="#CCDCF3"/>
        </g>
        <g id="angel-body">
            <path id="Vector_3" d="M77.3894 104.987C95.8081 104.987 110.739 90.056 110.739 71.6374C110.739 53.2187 95.8081 38.2874 77.3894 38.2874C58.9707 38.2874 44.0394 53.2187 44.0394 71.6374C44.0394 90.056 58.9707 104.987 77.3894 104.987Z" fill="#E5117D"/>
            <path id="Vector_4" d="M85.0794 71.6373C90.0665 71.6373 94.1094 67.5945 94.1094 62.6073C94.1094 57.6202 90.0665 53.5773 85.0794 53.5773C80.0922 53.5773 76.0494 57.6202 76.0494 62.6073C76.0494 67.5945 80.0922 71.6373 85.0794 71.6373Z" fill="white"/>
            <path id="Vector_5" d="M70.6594 93.9574C70.4146 93.5048 70.3101 92.9895 70.3594 92.4774C70.3561 92.2749 70.4072 92.0753 70.5075 91.8993C70.6078 91.7234 70.7535 91.5777 70.9294 91.4774C71.1746 91.3707 71.4451 91.336 71.7094 91.3774C74.7061 91.9581 77.7706 92.1063 80.8094 91.8174C83.5096 91.5662 86.1386 90.8097 88.5594 89.5874C93.2394 87.2074 96.9827 83.0174 99.7894 77.0174C99.9029 76.7531 100.09 76.5274 100.329 76.3674C100.511 76.2847 100.712 76.2523 100.911 76.2734C101.109 76.2945 101.299 76.3684 101.459 76.4874C101.889 76.7572 102.236 77.1416 102.459 77.5974C102.667 77.9336 102.788 78.3163 102.81 78.7109C102.833 79.1055 102.757 79.4995 102.589 79.8573C101.223 82.8197 99.4344 85.5683 97.2794 88.0174C95.3388 90.1696 93.0291 91.9577 90.4594 93.2974C87.8656 94.616 85.0528 95.4496 82.1594 95.7574C78.9117 96.0889 75.6337 95.9678 72.4194 95.3974C72.0565 95.3133 71.7157 95.1531 71.4194 94.9274C71.0983 94.6633 70.8389 94.3322 70.6594 93.9574Z" fill="white"/>
        </g>
    </g>

    <defs>
        <style>


      #angel-body {
        transform-box: fill-box;
        transform-origin: center;
        transform: translateY(-5px);
        animation: float 1s ease-in-out infinite alternate;
      }

      @keyframes float {
        0% {
          transform: translateY(-3px);
        }

        100% {
          transform: translateY(3px);
        }
      }

      #left-wing {
        transform-box: fill-box;
        transform-origin: left bottom;
        animation: flapLeft 1s ease-in-out infinite alternate;
      }

      @keyframes flapLeft {
        0% {
          transform: rotate(-5deg);
        }

        100% {
          transform: rotate(5deg);
        }
      }

      #right-wing {
        transform-box: fill-box;
        transform-origin: right bottom;
        animation: flapRight 1s ease-in-out infinite alternate;
      }

      @keyframes flapRight {
        0% {
          transform: rotate(5deg);
        }

        100% {
          transform: rotate(-5deg);
        }
      }
        </style>
    </defs>
</svg>
