<svg width="100%" min-height="0" viewBox="0 0 622 119" fill="none"
    xmlns="http://www.w3.org/2000/svg">
    <g id="logo">
        <g id="Text">
            <path id="Vector" d="M186.595 43.2773C186.949 43.6603 187.139 44.1662 187.125 44.6873V92.0173C187.139 92.5385 186.949 93.0444 186.595 93.4273C186.418 93.6127 186.203 93.7584 185.965 93.855C185.727 93.9515 185.472 93.9966 185.215 93.9873C184.95 93.9942 184.686 93.9482 184.439 93.852C184.192 93.7559 183.966 93.6115 183.775 93.4273C183.58 93.2492 183.425 93.0311 183.321 92.7878C183.218 92.5445 183.168 92.2817 183.175 92.0173V51.7773L163.175 92.4373C163.015 92.7442 162.766 92.9959 162.461 93.1599C162.156 93.3239 161.809 93.3927 161.465 93.3573C161.069 93.3546 160.683 93.2343 160.355 93.0118C160.028 92.7892 159.774 92.4745 159.625 92.1073L139.725 52.3673V92.0173C139.733 92.2782 139.687 92.5378 139.591 92.7803C139.495 93.0228 139.35 93.243 139.165 93.4273C138.784 93.7944 138.274 93.9958 137.745 93.9873C137.479 94.0002 137.213 93.9573 136.965 93.8613C136.716 93.7654 136.491 93.6185 136.302 93.4301C136.114 93.2418 135.967 93.0161 135.871 92.7677C135.775 92.5192 135.732 92.2534 135.745 91.9873V44.6873C135.737 44.4265 135.783 44.1669 135.879 43.9244C135.975 43.6819 136.12 43.4617 136.305 43.2773C136.489 43.0917 136.709 42.946 136.951 42.8497C137.194 42.7533 137.454 42.7082 137.715 42.7173C138.079 42.6813 138.444 42.7579 138.763 42.9368C139.081 43.1157 139.337 43.3882 139.495 43.7173L161.635 87.3173L183.445 43.6973C183.618 43.3825 183.875 43.1221 184.188 42.9454C184.5 42.7687 184.856 42.6828 185.215 42.6973C185.473 42.688 185.731 42.7351 185.969 42.8352C186.207 42.9354 186.421 43.0863 186.595 43.2773V43.2773Z" fill="#1D1D1B" />
            <path id="Vector_2" d="M200.815 93.4573C200.63 93.273 200.485 93.0528 200.389 92.8103C200.293 92.5678 200.247 92.3081 200.255 92.0473V44.6873C200.247 44.4265 200.293 44.1669 200.389 43.9244C200.485 43.6818 200.63 43.4616 200.815 43.2773C200.998 43.0912 201.218 42.9452 201.461 42.8488C201.704 42.7524 201.964 42.7076 202.225 42.7173H233.825C234.081 42.7152 234.334 42.7635 234.571 42.8596C234.808 42.9557 235.023 43.0977 235.205 43.2773C235.398 43.4572 235.55 43.6759 235.652 43.9189C235.753 44.162 235.802 44.4239 235.795 44.6873C235.795 45.2178 235.584 45.7265 235.209 46.1016C234.834 46.4766 234.326 46.6873 233.795 46.6873H204.195V66.3673H225.945C226.205 66.3587 226.464 66.403 226.707 66.4975C226.949 66.5921 227.17 66.7349 227.355 66.9173C227.722 67.298 227.923 67.8086 227.915 68.3373C227.922 68.6025 227.876 68.8664 227.78 69.1136C227.684 69.3608 227.539 69.5864 227.355 69.7773C227.174 69.9689 226.956 70.1205 226.713 70.2221C226.47 70.3237 226.208 70.3732 225.945 70.3673H204.195V90.0773H233.825C234.083 90.0785 234.338 90.1314 234.575 90.2327C234.812 90.334 235.026 90.4818 235.205 90.6673C235.392 90.8449 235.541 91.0589 235.643 91.2963C235.744 91.5336 235.796 91.7892 235.795 92.0473C235.802 92.3107 235.753 92.5727 235.652 92.8157C235.55 93.0588 235.398 93.2775 235.205 93.4573C234.834 93.8147 234.34 94.0153 233.825 94.0173H202.225C201.964 94.0253 201.705 93.9797 201.462 93.8833C201.22 93.787 200.999 93.642 200.815 93.4573V93.4573Z" fill="#1D1D1B" />
            <path id="Vector_3" d="M277.045 92.5073C277.056 92.7229 277.012 92.9377 276.918 93.1317C276.823 93.3258 276.681 93.4929 276.505 93.6173C276.023 93.9151 275.46 94.0549 274.895 94.0173C274.527 94.0342 274.162 93.9439 273.845 93.7573C273.554 93.5454 273.309 93.2767 273.125 92.9673L261.015 73.6573H249.255V92.0173C249.272 92.5371 249.085 93.0428 248.735 93.4273C248.456 93.7088 248.099 93.9009 247.711 93.9794C247.322 94.0578 246.919 94.0191 246.553 93.868C246.186 93.7169 245.873 93.4603 245.653 93.1308C245.432 92.8013 245.315 92.4137 245.315 92.0173V44.6873C245.302 44.4199 245.344 44.1526 245.441 43.9028C245.537 43.653 245.685 43.4263 245.875 43.2373C246.26 42.8873 246.765 42.7008 247.285 42.7173H259.835C262.78 42.6737 265.69 43.3609 268.305 44.7173C270.739 45.9653 272.768 47.8797 274.155 50.2373C275.58 52.6883 276.306 55.4828 276.255 58.3173C276.345 61.6413 275.306 64.8977 273.309 67.556C271.311 70.2144 268.473 72.1182 265.255 72.9573L276.505 91.0173C276.805 91.4618 276.991 91.9737 277.045 92.5073ZM259.835 69.7173C262.067 69.7543 264.275 69.2571 266.275 68.2673C268.105 67.3535 269.64 65.9431 270.705 64.1973C271.785 62.4171 272.343 60.3693 272.315 58.2873C272.345 56.1767 271.788 54.0993 270.705 52.2873C269.645 50.5196 268.11 49.0851 266.275 48.1473C264.282 47.134 262.071 46.6258 259.835 46.6673H249.255V69.7173H259.835Z" fill="#1D1D1B" />
            <path id="Vector_4" d="M295.505 91.0973C291.593 88.7396 288.355 85.4123 286.105 81.4373C283.834 77.4484 282.64 72.9373 282.64 68.3473C282.64 63.7574 283.834 59.2463 286.105 55.2573C288.339 51.3037 291.552 47.991 295.435 45.6373C299.306 43.2502 303.768 41.9961 308.315 42.0173C314.245 41.9668 319.994 44.0583 324.505 47.9073C324.701 48.0624 324.857 48.2624 324.96 48.4904C325.063 48.7184 325.109 48.9677 325.095 49.2173C325.102 49.7354 324.916 50.2376 324.575 50.6273C324.398 50.8364 324.175 51.0019 323.923 51.1111C323.672 51.2203 323.399 51.2704 323.125 51.2573C322.504 51.191 321.924 50.9119 321.485 50.4673C318.165 47.5007 313.775 46.0173 308.315 46.0173C304.494 46.0009 300.747 47.0652 297.505 49.0873C294.182 51.1106 291.429 53.9463 289.505 57.3273C287.547 60.6631 286.512 64.4595 286.505 68.3273C286.498 72.2601 287.533 76.1246 289.505 79.5273C291.387 82.9043 294.126 85.7257 297.445 87.7073C301.212 89.9598 305.581 90.9982 309.959 90.6815C314.337 90.3649 318.511 88.7085 321.915 85.9373C322.204 85.723 322.555 85.6073 322.915 85.6073C323.445 85.6096 323.952 85.8218 324.325 86.1973C324.526 86.381 324.685 86.6053 324.792 86.8554C324.899 87.1054 324.951 87.3754 324.945 87.6473C324.973 88.1428 324.817 88.6311 324.505 89.0173C320.745 92.7773 315.362 94.6607 308.355 94.6673C303.823 94.6969 299.373 93.4605 295.505 91.0973V91.0973Z" fill="#1D1D1B" />
            <path id="Vector_5" d="M336.195 93.4573C336.01 93.273 335.865 93.0528 335.769 92.8103C335.673 92.5678 335.627 92.3081 335.635 92.0473V44.6873C335.627 44.4265 335.673 44.1669 335.769 43.9244C335.865 43.6818 336.01 43.4616 336.195 43.2773C336.476 43.0093 336.829 42.8289 337.211 42.7581C337.593 42.6873 337.987 42.7293 338.345 42.8788C338.704 43.0283 339.011 43.279 339.229 43.6001C339.448 43.9213 339.568 44.299 339.575 44.6873V92.0173C339.585 92.2784 339.54 92.5386 339.444 92.7813C339.347 93.0241 339.201 93.2441 339.015 93.4273C338.633 93.7859 338.129 93.9855 337.605 93.9855C337.081 93.9855 336.577 93.7859 336.195 93.4273V93.4573Z" fill="#1D1D1B" />
            <path id="Vector_6" d="M372.945 93.0173C372.619 92.7039 372.362 92.3259 372.189 91.9076C372.017 91.4892 371.934 91.0396 371.945 90.5873V46.1273C371.93 45.6702 372.012 45.215 372.184 44.7913C372.356 44.3675 372.616 43.9846 372.945 43.6673C373.267 43.3563 373.648 43.1123 374.065 42.9492C374.482 42.7861 374.927 42.7073 375.375 42.7173H391.075C393.783 42.6661 396.464 43.2627 398.895 44.4573C401.119 45.5441 402.986 47.2431 404.278 49.3547C405.569 51.4662 406.231 53.9026 406.185 56.3773C406.214 58.4372 405.607 60.4559 404.445 62.1573C403.229 63.9167 401.588 65.3407 399.675 66.2973C402.489 66.8163 405.016 68.3439 406.784 70.5937C408.551 72.8435 409.437 75.6609 409.275 78.5173C409.314 81.3304 408.573 84.0993 407.135 86.5173C405.704 88.893 403.622 90.8086 401.135 92.0373C398.437 93.3917 395.453 94.0777 392.435 94.0373H375.375C374.922 94.0434 374.472 93.9559 374.054 93.7804C373.636 93.6049 373.258 93.3452 372.945 93.0173V93.0173ZM391.075 63.7873C393.304 63.9006 395.501 63.2282 397.285 61.8873C398.073 61.2097 398.694 60.3586 399.098 59.4009C399.503 58.4432 399.679 57.4049 399.615 56.3673C399.682 55.3353 399.507 54.3019 399.102 53.3501C398.697 52.3983 398.075 51.5548 397.285 50.8873C395.493 49.5655 393.299 48.9048 391.075 49.0173H378.795V63.7973L391.075 63.7873ZM392.505 87.7073C395.186 87.8321 397.821 86.9832 399.925 85.3173C400.879 84.471 401.63 83.4196 402.12 82.2419C402.61 81.0642 402.827 79.7909 402.755 78.5173C402.824 77.3298 402.607 76.1429 402.121 75.0569C401.636 73.9709 400.896 73.0176 399.965 72.2773C397.793 70.7355 395.165 69.971 392.505 70.1073H378.795V87.7073H392.505Z" fill="black" />
            <path id="Vector_7" d="M428.285 91.3273C424.389 89.1606 421.188 85.9321 419.055 82.0173C416.824 77.8256 415.695 73.1353 415.775 68.3873C415.689 63.6483 416.819 58.9663 419.055 54.7873C421.182 50.8629 424.384 47.6263 428.285 45.4573C432.457 43.2557 437.103 42.105 441.82 42.105C446.537 42.105 451.183 43.2557 455.355 45.4573C459.261 47.6307 462.471 50.8654 464.615 54.7873C466.87 58.9603 468.011 63.6447 467.925 68.3873C468.007 73.1392 466.867 77.8324 464.615 82.0173C462.478 85.9417 459.279 89.1853 455.385 91.3773C451.207 93.5774 446.557 94.7271 441.835 94.7271C437.113 94.7271 432.463 93.5774 428.285 91.3773V91.3273ZM451.905 85.8373C454.864 84.1102 457.287 81.5974 458.905 78.5773C460.548 75.4122 461.405 71.8984 461.405 68.3323C461.405 64.7663 460.548 61.2525 458.905 58.0873C457.305 55.0851 454.907 52.5831 451.975 50.8573C448.891 49.1392 445.42 48.2374 441.89 48.2374C438.36 48.2374 434.889 49.1392 431.805 50.8573C428.878 52.5888 426.481 55.0894 424.875 58.0873C423.193 61.2389 422.336 64.7652 422.385 68.3373C422.337 71.9061 423.194 75.4289 424.875 78.5773C426.497 81.5946 428.919 84.1065 431.875 85.8373C434.938 87.5802 438.401 88.4967 441.925 88.4967C445.449 88.4967 448.912 87.5802 451.975 85.8373H451.905Z" fill="#E5157D" />
            <path id="Vector_8" d="M479.625 93.0173C479.299 92.7035 479.042 92.3255 478.87 91.9072C478.698 91.4889 478.615 91.0395 478.625 90.5873V46.1273C478.611 45.6702 478.693 45.2153 478.865 44.7916C479.037 44.368 479.296 43.985 479.625 43.6673C479.946 43.355 480.327 43.11 480.744 42.9468C481.161 42.7837 481.607 42.7057 482.055 42.7173H497.755C500.46 42.6677 503.137 43.2642 505.565 44.4573C507.767 45.5496 509.623 47.2321 510.925 49.3173C512.226 51.4397 512.895 53.8885 512.855 56.3773C512.884 58.4372 512.277 60.4559 511.115 62.1573C509.9 63.9143 508.263 65.3379 506.355 66.2973C509.168 66.8164 511.694 68.3445 513.46 70.5945C515.226 72.8446 516.11 75.6619 515.945 78.5173C515.987 81.3295 515.25 84.0985 513.815 86.5173C512.381 88.8908 510.3 90.8058 507.815 92.0373C505.114 93.3918 502.127 94.0777 499.105 94.0373H482.055C481.601 94.0452 481.151 93.9586 480.733 93.783C480.314 93.6074 479.937 93.3466 479.625 93.0173V93.0173ZM497.755 63.7873C499.981 63.9016 502.176 63.229 503.955 61.8873C504.745 61.2112 505.367 60.3604 505.771 59.4023C506.176 58.4442 506.352 57.4051 506.285 56.3673C506.355 55.335 506.18 54.3008 505.775 53.3487C505.371 52.3965 504.747 51.5533 503.955 50.8873C502.169 49.5604 499.977 48.8958 497.755 49.0073H485.505V63.7973L497.755 63.7873ZM499.125 87.6973C501.809 87.8227 504.448 86.9739 506.555 85.3073C507.508 84.4605 508.257 83.4087 508.746 82.231C509.234 81.0533 509.449 79.7802 509.375 78.5073C509.444 77.3198 509.227 76.1329 508.741 75.0469C508.256 73.961 507.516 73.0076 506.585 72.2673C504.414 70.7241 501.785 69.9594 499.125 70.0973H485.505V87.6973H499.125Z" fill="black" />
            <path id="Vector_9" d="M527.115 93.0173C526.789 92.7035 526.532 92.3255 526.36 91.9072C526.188 91.4889 526.105 91.0395 526.115 90.5873V46.1273C526.101 45.6702 526.183 45.2153 526.355 44.7916C526.527 44.368 526.786 43.985 527.115 43.6673C527.432 43.3598 527.806 43.1176 528.216 42.9546C528.626 42.7916 529.064 42.711 529.505 42.7173H545.205C547.91 42.6677 550.587 43.2642 553.015 44.4573C555.217 45.5496 557.073 47.2321 558.375 49.3173C559.676 51.4397 560.345 53.8885 560.305 56.3773C560.334 58.4372 559.727 60.4559 558.565 62.1573C557.353 63.9163 555.715 65.3404 553.805 66.2973C556.618 66.8164 559.144 68.3445 560.91 70.5945C562.676 72.8446 563.56 75.6619 563.395 78.5173C563.437 81.3295 562.7 84.0985 561.265 86.5173C559.831 88.8908 557.75 90.8058 555.265 92.0373C552.567 93.3917 549.583 94.0777 546.565 94.0373H529.505C529.058 94.0397 528.615 93.9504 528.204 93.7749C527.793 93.5995 527.423 93.3417 527.115 93.0173V93.0173ZM545.245 63.7873C547.471 63.9016 549.666 63.229 551.445 61.8873C552.237 61.2122 552.861 60.3618 553.267 59.4037C553.673 58.4455 553.851 57.406 553.785 56.3673C553.854 55.3342 553.678 54.2995 553.271 53.3473C552.864 52.3951 552.239 51.5522 551.445 50.8873C549.659 49.5604 547.467 48.8958 545.245 49.0073H532.955V63.7973L545.245 63.7873ZM546.625 87.6973C549.306 87.8221 551.941 86.9732 554.045 85.3073C554.998 84.4605 555.747 83.4087 556.236 82.231C556.724 81.0533 556.939 79.7802 556.865 78.5073C556.934 77.3198 556.717 76.1329 556.231 75.0469C555.746 73.961 555.006 73.0076 554.075 72.2673C551.907 70.7255 549.282 69.9609 546.625 70.0973H532.955V87.6973H546.625Z" fill="black" />
            <path id="Vector_10" d="M606.625 43.6373C607.174 44.2479 607.468 45.0463 607.445 45.8673C607.437 46.6375 607.212 47.3896 606.795 48.0373L589.125 75.2973V90.5974C589.13 91.048 589.046 91.4951 588.876 91.9124C588.706 92.3298 588.454 92.709 588.135 93.0276C587.817 93.3463 587.438 93.598 587.02 93.7679C586.603 93.9379 586.156 94.0227 585.705 94.0173C585.264 94.0223 584.827 93.936 584.421 93.764C584.014 93.5919 583.648 93.3377 583.345 93.0173C583.019 92.7035 582.762 92.3255 582.59 91.9072C582.418 91.489 582.335 91.0395 582.345 90.5873V75.2973L564.815 48.0173C564.382 47.3993 564.132 46.6713 564.095 45.9173C564.086 45.4845 564.171 45.0549 564.343 44.6578C564.516 44.2608 564.772 43.9059 565.095 43.6173C565.751 43.016 566.615 42.6933 567.505 42.7173C568.109 42.6873 568.708 42.8482 569.215 43.1773C569.729 43.5754 570.166 44.0633 570.505 44.6173L585.905 69.0173L601.505 44.3573C601.815 43.8427 602.256 43.4196 602.783 43.1314C603.31 42.8433 603.905 42.7004 604.505 42.7173C604.905 42.6999 605.304 42.7737 605.671 42.933C606.038 43.0924 606.365 43.3333 606.625 43.6373V43.6373Z" fill="black" />
        </g>
        <g id="left-wing">
            <path id="Vector_11" d="M53.2351 40.8274C52.5051 40.6574 39.5851 18.0174 20.5051 21.1874C20.5051 21.1874 9.21508 23.3574 17.7351 32.3674C17.7351 32.3674 21.2651 36.5174 23.8351 37.5774C23.8351 37.5774 18.2651 37.7874 19.0851 43.9474C19.9051 50.1074 34.9751 50.9474 34.9751 50.9474H37.1651C37.1651 50.9474 31.0651 52.1673 31.2351 57.9473C31.4051 63.7273 40.5051 64.7373 48.5051 61.0673C48.5051 61.0673 55.3951 57.5074 56.0851 54.4874C56.7751 51.4674 53.2351 40.8274 53.2351 40.8274Z" fill="#CCDCF3" />
        </g>
        <g id="right-wing">
            <path id="Vector_12" d="M114.055 14.1674C106.135 15.6374 98.1851 34.9274 97.8251 49.1674L100.405 57.3574C100.405 57.3574 112.065 60.0174 121.595 47.7774C122.253 46.9425 122.644 45.9281 122.715 44.8674C122.865 42.5574 122.385 38.7774 117.655 38.4674C119.161 37.841 120.373 36.6676 121.049 35.1833C121.724 33.699 121.812 32.014 121.295 30.4674C119.565 24.6474 115.845 26.3374 115.845 26.3374C115.845 26.3374 121.045 20.1974 117.845 15.4274C117.482 14.9 116.972 14.4909 116.378 14.2509C115.784 14.0109 115.133 13.9506 114.505 14.0774L114.055 14.1674Z" fill="#CCDCF3" />
        </g>
        <g id="angel-body">
            <path id="Vector_13" d="M75.5351 104.987C93.9538 104.987 108.885 90.056 108.885 71.6374C108.885 53.2187 93.9538 38.2874 75.5351 38.2874C57.1164 38.2874 42.1851 53.2187 42.1851 71.6374C42.1851 90.056 57.1164 104.987 75.5351 104.987Z" fill="#E5117D" />
            <path id="Vector_14" d="M83.2251 71.6373C88.2122 71.6373 92.2551 67.5945 92.2551 62.6073C92.2551 57.6202 88.2122 53.5773 83.2251 53.5773C78.2379 53.5773 74.1951 57.6202 74.1951 62.6073C74.1951 67.5945 78.2379 71.6373 83.2251 71.6373Z" fill="white" />
            <path id="Vector_15" d="M68.805 93.9574C68.5603 93.5048 68.4558 92.9895 68.505 92.4774C68.5017 92.2749 68.5529 92.0753 68.6532 91.8993C68.7535 91.7234 68.8992 91.5777 69.075 91.4774C69.3203 91.3707 69.5908 91.336 69.855 91.3774C72.8518 91.9581 75.9163 92.1063 78.955 91.8174C81.6553 91.5662 84.2843 90.8097 86.705 89.5874C91.385 87.2074 95.1284 83.0174 97.935 77.0174C98.0485 76.7531 98.2361 76.5274 98.475 76.3674C98.657 76.2847 98.8577 76.2523 99.0564 76.2734C99.2551 76.2945 99.4445 76.3684 99.605 76.4874C100.035 76.7572 100.381 77.1416 100.605 77.5974C100.813 77.9336 100.933 78.3163 100.956 78.7109C100.979 79.1055 100.903 79.4995 100.735 79.8573C99.3687 82.8197 97.5801 85.5683 95.425 88.0174C93.4845 90.1696 91.1748 91.9577 88.605 93.2974C86.0113 94.616 83.1984 95.4496 80.3051 95.7574C77.0574 96.0889 73.7794 95.9678 70.5651 95.3974C70.2022 95.3133 69.8613 95.1531 69.5651 94.9274C69.244 94.6633 68.9846 94.3322 68.805 93.9574Z" fill="white" />
        </g>
    </g>

    <defs>
        <style>


      #angel-body {
        transform-box: fill-box;
        transform-origin: center;
        transform: translateY(-5px);
        animation: float 1s ease-in-out infinite alternate;
      }

      @keyframes float {
        0% {
          transform: translateY(-3px);
        }

        100% {
          transform: translateY(3px);
        }
      }

      #left-wing {
        transform-box: fill-box;
        transform-origin: left bottom;
        animation: flapLeft 1s ease-in-out infinite alternate;
      }

      @keyframes flapLeft {
        0% {
          transform: rotate(-5deg);
        }

        100% {
          transform: rotate(5deg);
        }
      }

      #right-wing {
        transform-box: fill-box;
        transform-origin: right bottom;
        animation: flapRight 1s ease-in-out infinite alternate;
      }

      @keyframes flapRight {
        0% {
          transform: rotate(5deg);
        }

        100% {
          transform: rotate(-5deg);
        }
      }
        </style>
    </defs>
</svg>